<svg xmlns="http://www.w3.org/2000/svg" width="165" height="45" viewBox="0 0 165 45" fill="none"><g clip-path="url(#clip0_254_2376)"><path d="M0.255682 4.88658C0.214103 4.78599 0.182918 4.6854 0.151733 4.57952C0.182918 4.6854 0.2193 4.78599 0.255682 4.88658Z" fill="#D48182"></path><path d="M31.641 11.6578C31.615 11.7372 31.5838 11.8166 31.5526 11.8907C31.5838 11.8166 31.6098 11.7372 31.641 11.6578Z" fill="#D48182"></path><path d="M0.130362 4.51599C0.104375 4.42599 0.0835855 4.33599 0.0679932 4.2407C0.0835855 4.3307 0.109573 4.42599 0.130362 4.51599Z" fill="#D48182"></path><path d="M31.8925 10.0007C31.8925 10.0748 31.8977 10.1542 31.8977 10.2283C31.8977 10.1542 31.8977 10.0748 31.8925 10.0007Z" fill="#D48182"></path><path d="M0.261475 4.90775C0.522931 5.56422 0.977866 6.14658 1.61059 6.55422C1.65765 6.58599 1.70471 6.60716 1.75178 6.63363C1.09291 6.24716 0.559535 5.64893 0.261475 4.90775Z" fill="#D48182"></path><path d="M2.05937 6.79246C2.00739 6.76599 1.95542 6.74482 1.90344 6.71835C1.95542 6.74482 2.00739 6.77129 2.05937 6.79246Z" fill="#D48182"></path><path d="M31.7566 9.07423C31.7826 9.17481 31.8086 9.27011 31.8242 9.3707C31.8034 9.27011 31.7826 9.17481 31.7566 9.07423Z" fill="#D48182"></path><path d="M11.0543 21.1078C11.0543 21.0495 11.0439 20.9913 11.0439 20.9331C11.0439 20.9913 11.0491 21.0495 11.0543 21.1078Z" fill="#D48182"></path><path d="M30.7003 7.14188C30.7892 7.23188 30.8729 7.33246 30.9513 7.43305C30.8729 7.33246 30.7892 7.23717 30.7003 7.14188Z" fill="#D48182"></path><path d="M0.0941162 2.73717C0.114906 2.64188 0.140893 2.55188 0.172078 2.46188C0.140893 2.55188 0.120103 2.64717 0.0941162 2.73717Z" fill="#D48182"></path><path d="M31.1134 7.6607C31.1394 7.69776 31.1654 7.72952 31.1862 7.76658C31.1602 7.72952 31.1342 7.69776 31.1134 7.6607Z" fill="#D48182"></path><path d="M0.554357 1.6307C0.486379 1.73658 0.428858 1.84246 0.371338 1.94834C0.428858 1.83187 0.496837 1.7154 0.564816 1.60952C0.564816 1.61481 0.554357 1.6254 0.549128 1.6307H0.554357Z" fill="#D48182"></path><path d="M0.0519555 4.16128C0.0311657 4.03952 0.0155734 3.91775 0.010376 3.79599C0.0207709 3.91775 0.0311657 4.03952 0.0519555 4.16128Z" fill="#D48182"></path><path d="M31.516 8.3754C31.5368 8.42305 31.5628 8.4707 31.5836 8.52364C31.5628 8.47599 31.542 8.42835 31.516 8.3754Z" fill="#D48182"></path><path d="M31.3591 8.05775C31.3591 8.05775 31.3851 8.1054 31.4007 8.13187C31.3903 8.1054 31.3747 8.08423 31.3591 8.05775Z" fill="#D48182"></path><path d="M31.6415 8.69834C31.6675 8.77775 31.6987 8.85716 31.7194 8.93658C31.6935 8.85716 31.6675 8.77775 31.6415 8.69834Z" fill="#D48182"></path><path d="M-4.00888e-06 3.7007C-0.00520145 3.55776 -4.00911e-06 3.42011 0.00519343 3.28246C-0.00520145 3.42011 -0.00520145 3.56305 -4.00888e-06 3.7007Z" fill="#D48182"></path><path d="M0.015625 3.21364C0.0260199 3.09717 0.0416122 2.98599 0.062402 2.86952C0.0416122 2.9807 0.0260199 3.09717 0.015625 3.21364Z" fill="#D48182"></path><path d="M31.8507 9.52952C31.8663 9.61952 31.8767 9.70952 31.8871 9.79422C31.8819 9.70422 31.8663 9.61422 31.8507 9.52952Z" fill="#D48182"></path><path d="M30.2083 13.6589C30.2083 13.6589 30.1929 13.669 30.1826 13.6792C30.1929 13.6741 30.198 13.669 30.2083 13.6589Z" fill="#D48182"></path><path d="M30.5169 13.3942C30.5169 13.3942 30.4701 13.4366 30.4441 13.4631C30.4701 13.4419 30.4909 13.4207 30.5169 13.3942Z" fill="#D48182"></path><path d="M29.2828 14.2095C29.2828 14.2095 29.2412 14.2307 29.2205 14.2413C29.2412 14.2307 29.262 14.2201 29.2828 14.2095Z" fill="#D48182"></path><path d="M29.0112 14.3154C28.9485 14.3366 28.8857 14.363 28.8177 14.3842C28.8805 14.363 28.9485 14.3419 29.0112 14.3154Z" fill="#D48182"></path><path d="M28.5456 14.4636C28.5456 14.4636 28.5144 14.4742 28.4988 14.4742C28.5144 14.4742 28.53 14.4636 28.5456 14.4636Z" fill="#D48182"></path><path d="M30.8042 13.0925C30.773 13.1295 30.7366 13.1666 30.7054 13.2036C30.7418 13.1666 30.773 13.1295 30.8042 13.0925Z" fill="#D48182"></path><path d="M31.8087 11.0701C31.8191 11.033 31.8191 10.9907 31.8243 10.9536C31.8139 11.0013 31.8087 11.0489 31.7983 11.0913C31.7983 11.086 31.7983 11.0754 31.8035 11.0701H31.8087Z" fill="#D48182"></path><path d="M31.4892 12.0283C31.4528 12.1078 31.4165 12.1819 31.3749 12.2613C31.4165 12.1872 31.4528 12.1078 31.4892 12.0283Z" fill="#D48182"></path><path d="M31.3009 12.3989C31.2593 12.4678 31.2229 12.5366 31.1761 12.6001C31.2177 12.5366 31.2593 12.4678 31.3009 12.3989Z" fill="#D48182"></path><path d="M31.0656 12.7589C31.0292 12.8119 30.9876 12.8648 30.946 12.9178C30.9876 12.8648 31.024 12.8119 31.0656 12.7589Z" fill="#D48182"></path><path d="M28.148 14.5378C28.148 14.5378 28.1012 14.5378 28.0804 14.5483C28.1012 14.5483 28.1272 14.5483 28.148 14.5378Z" fill="#D48182"></path><path d="M30.9617 8.38599C30.7316 7.58129 30.2976 6.89834 29.7276 6.36893C30.078 6.5754 30.4022 6.82952 30.6846 7.13129C30.0989 6.50658 29.325 6.05129 28.4308 5.86599C26.0725 5.37364 23.7716 6.90364 23.2853 9.28599C23.1598 9.9107 23.1755 10.5248 23.3063 11.1125H23.301C23.7089 16.7348 18.3909 15.1042 18.3909 15.1042L18.4013 15.1148C17.8627 14.9401 17.2928 14.8448 16.7019 14.8448C16.6705 14.8448 16.6443 14.8448 16.613 14.8448C5.14548 12.5895 6.95999 4.28305 6.95999 4.28305C7.24759 2.88011 6.68285 1.38187 5.42263 0.561286C4.0526 -0.322831 2.30607 -0.132243 1.15566 0.921286C0.632743 1.67835 0.392203 2.64187 0.575223 3.62658C0.936033 5.56423 2.77669 6.84011 4.69055 6.47482C5.34942 6.34776 5.92462 6.04599 6.39002 5.62246C5.87756 6.34776 5.10365 6.88246 4.17287 7.05717C3.56106 7.17364 2.95448 7.1207 2.40542 6.9354C2.40542 6.9354 11.2322 9.7307 11.0596 19.996C11.0387 20.1866 11.0283 20.3825 11.0283 20.5783C11.0283 20.6631 11.0335 20.7425 11.0387 20.8272C11.0387 20.8642 11.0387 20.896 11.0387 20.9331C11.0387 20.9913 11.0492 21.0495 11.0492 21.1078C11.1328 22.1454 11.4936 23.1619 12.1211 24.0248C12.7173 25.4383 15.0442 32.093 7.7339 35.6719H7.73913C6.05012 36.4183 4.86834 38.1178 4.86834 40.0978C4.86834 41.5325 5.49584 42.8136 6.47891 43.7031C7.55611 44.3383 8.87908 44.5501 10.1655 44.1742C12.6859 43.4383 14.1396 40.7648 13.4075 38.1972C13.1565 37.3131 12.6754 36.5666 12.0584 35.9842C12.8323 36.4448 13.4807 37.1225 13.9095 37.9695C13.9095 37.9642 13.9095 37.9695 13.9095 37.9589C13.8938 37.9219 13.8834 37.8742 13.8624 37.8372C13.0206 35.8942 10.5419 28.8848 17.2039 26.3489C17.2195 26.3489 17.2405 26.3436 17.2562 26.3436C17.0888 26.3595 16.9163 26.3701 16.7542 26.3701C15.6926 26.3701 14.673 26.0736 13.7945 25.5336C13.7474 25.5019 13.6951 25.4754 13.6481 25.4436C13.6167 25.4225 13.5905 25.4066 13.5592 25.3854C13.282 25.1948 13.0153 24.9778 12.7748 24.7395C14.0455 25.5283 15.6142 25.8195 17.1725 25.4119C20.2054 24.6178 22.0303 21.4836 21.2407 18.4131C20.9688 17.3595 20.425 16.4489 19.7034 15.7448C19.8498 15.8348 19.9858 15.9301 20.1217 16.036C20.1531 16.0625 20.1845 16.0889 20.2158 16.1101C20.3047 16.1789 20.3936 16.2531 20.4773 16.3272C21.2983 17.0578 21.9258 18.0372 22.2186 19.1913C22.2291 19.2231 22.2291 19.2548 22.2395 19.2866L22.25 19.2972C21.9728 17.9101 22.1454 16.9148 22.5428 16.1948C22.9245 15.5066 23.5102 15.0725 24.1168 14.8025C25.4084 14.2201 27.0033 14.5536 27.0033 14.5536C26.9876 14.5536 26.9719 14.5431 26.9562 14.5378C26.9614 14.5378 26.9666 14.5378 26.9719 14.5378C26.0829 14.416 25.2567 14.0189 24.6031 13.4101C25.5914 13.9925 26.7993 14.1778 27.9863 13.8336C30.2976 13.1613 31.6258 10.7207 30.9617 8.38599Z" fill="#D48182"></path><path d="M20.4825 16.3325C20.3989 16.2583 20.31 16.1842 20.2211 16.1154C20.1897 16.0889 20.1583 16.0625 20.127 16.0413C19.991 15.9407 19.8498 15.8401 19.7086 15.7501C20.4302 16.4595 20.9741 17.3648 21.246 18.4183C22.0304 21.4889 20.2106 24.623 17.1777 25.4172C15.6194 25.8248 14.0507 25.5336 12.78 24.7448C13.0258 24.983 13.2873 25.2001 13.5644 25.3907C13.5958 25.4119 13.6219 25.433 13.6533 25.4489C13.7004 25.4807 13.7526 25.5125 13.7997 25.5389C14.6782 26.0789 15.7031 26.3807 16.7594 26.3754C16.9267 26.3754 17.0941 26.3648 17.2614 26.3489C17.5595 26.3225 17.8523 26.2748 18.1503 26.1954C19.6563 25.7983 20.8643 24.8295 21.6016 23.5748C22.3337 22.3307 22.6003 20.806 22.2395 19.2919C22.2343 19.2601 22.2291 19.2283 22.2186 19.1966C21.9258 18.0425 21.2983 17.0683 20.4773 16.3325H20.4825Z" fill="#AD737E"></path><path d="M31.8873 10.4772C31.8926 10.3925 31.8978 10.3131 31.8978 10.2283C31.8978 10.1542 31.8978 10.0748 31.8926 10.0007C31.8926 9.93187 31.8926 9.86834 31.8821 9.79952C31.8769 9.70952 31.8612 9.61952 31.8455 9.53482C31.835 9.48187 31.8298 9.42893 31.8193 9.3707C31.8037 9.27011 31.7775 9.17481 31.7514 9.07423C31.7409 9.03717 31.7357 9.00011 31.7252 8.95776C31.7252 8.95246 31.7252 8.94717 31.72 8.93658C31.6939 8.85717 31.6677 8.77776 31.6416 8.69834C31.6206 8.64011 31.5997 8.57658 31.5788 8.51834C31.5579 8.4707 31.537 8.42305 31.5108 8.37011C31.4742 8.2854 31.4376 8.2007 31.3958 8.12129C31.3853 8.09482 31.3696 8.07364 31.354 8.04717C31.3017 7.94658 31.2441 7.85129 31.1814 7.75599C31.1553 7.71893 31.1291 7.68717 31.1082 7.65011C31.0559 7.57599 31.0036 7.49658 30.9461 7.42246C30.8676 7.32187 30.784 7.22658 30.6951 7.13129C30.6951 7.13129 30.6899 7.1207 30.6846 7.1207C30.4023 6.82423 30.078 6.56482 29.7277 6.35835C30.2924 6.88776 30.7317 7.5707 30.9618 8.3754C31.6259 10.7154 30.2924 13.1507 27.9864 13.8231C26.8046 14.1672 25.5915 13.9766 24.6031 13.3995C25.2568 14.0083 26.0882 14.4054 26.9719 14.5272C27.0974 14.5431 27.2229 14.5589 27.3484 14.5642C27.3641 14.5642 27.385 14.5642 27.4007 14.5642C27.5001 14.5642 27.5994 14.5642 27.704 14.5642C27.7354 14.5642 27.772 14.5642 27.8034 14.5642C27.8975 14.5589 27.9916 14.5483 28.0858 14.5378C28.1067 14.5378 28.1328 14.5378 28.1537 14.5272C28.2688 14.5113 28.3838 14.4901 28.4989 14.4636C28.5145 14.4636 28.5302 14.453 28.5459 14.453C28.6139 14.4372 28.6871 14.4213 28.7551 14.4001C28.776 14.3948 28.8021 14.3842 28.8231 14.3789C28.891 14.3578 28.9538 14.3366 29.0165 14.3101C29.0845 14.2836 29.1577 14.2625 29.2257 14.2307C29.2466 14.2201 29.2675 14.2095 29.2885 14.1989C29.6127 14.056 29.9159 13.876 30.1879 13.6642C30.1983 13.6589 30.2035 13.6536 30.214 13.6431C30.2977 13.5795 30.3709 13.5107 30.4493 13.4419C30.4755 13.4207 30.4964 13.3995 30.5225 13.3731C30.5853 13.3095 30.648 13.2513 30.7108 13.1825C30.7474 13.1454 30.7788 13.1083 30.8101 13.0713C30.8572 13.0131 30.9095 12.9548 30.9565 12.8966C30.9984 12.8436 31.035 12.7907 31.0768 12.7378C31.1134 12.6848 31.15 12.6372 31.1866 12.5842C31.2285 12.5154 31.2703 12.4519 31.3121 12.383C31.3383 12.3354 31.3644 12.293 31.3906 12.2454C31.4324 12.1713 31.469 12.0919 31.5056 12.0125C31.5265 11.9648 31.5474 11.9225 31.5684 11.8748C31.5997 11.7954 31.6259 11.7213 31.6572 11.6419C31.6782 11.5889 31.6939 11.536 31.7148 11.4831C31.7357 11.4142 31.7514 11.3401 31.7723 11.2713C31.788 11.2078 31.8089 11.1442 31.8193 11.0754C31.8298 11.0278 31.835 10.9801 31.8455 10.9378C31.8612 10.8425 31.8821 10.7419 31.8926 10.6413C31.8978 10.5831 31.903 10.5195 31.903 10.4613L31.8873 10.4772Z" fill="#AD737E"></path><path d="M12.0688 35.9895C12.6859 36.5719 13.167 37.3183 13.418 38.2025C14.1448 40.7701 12.6963 43.4436 10.1759 44.1795C8.8843 44.5554 7.56133 44.3436 6.48413 43.7083C6.55734 43.7772 6.63578 43.846 6.70898 43.9095C7.87508 44.873 9.46474 45.2648 11.0178 44.8148C13.2715 44.1583 14.6625 41.9507 14.4167 39.653C14.4167 39.6425 14.4167 39.6319 14.4167 39.6213C14.401 39.5101 14.3906 39.3936 14.3697 39.2825C14.3435 39.1342 14.3069 38.986 14.2651 38.8378C13.9095 37.5883 13.099 36.5983 12.0741 35.9895H12.0688Z" fill="#AD737E"></path><path d="M4.17811 7.05717C5.1089 6.87717 5.88281 6.34246 6.39526 5.62246C5.92987 6.04599 5.35467 6.35305 4.6958 6.47481C2.78193 6.84011 0.94128 5.56423 0.58047 3.62658C0.397451 2.64187 0.632762 1.68364 1.1609 0.921284C1.16613 0.910696 1.17136 0.905402 1.17659 0.894814C1.13476 0.931872 1.10338 0.974225 1.06155 1.01128C1.02495 1.04834 0.988342 1.0854 0.951739 1.12246C0.899447 1.1754 0.852385 1.23364 0.805323 1.29187C0.76349 1.34481 0.721657 1.40305 0.679824 1.46128C0.64322 1.50893 0.606616 1.56187 0.575241 1.61481C0.502033 1.72599 0.439284 1.83717 0.381763 1.95364C0.371305 1.98011 0.360847 2.00658 0.345159 2.03305C0.298097 2.13364 0.256264 2.23423 0.21966 2.33481C0.203973 2.37717 0.193515 2.41952 0.177827 2.46187C0.146452 2.55187 0.125536 2.64187 0.0993902 2.73717C0.0889319 2.77952 0.0784737 2.82717 0.0680154 2.86952C0.0470989 2.9807 0.0314115 3.09717 0.0209532 3.21364C0.0209532 3.23481 0.0157241 3.25599 0.010495 3.28246C3.67004e-05 3.42011 3.67006e-05 3.55775 0.00526583 3.7007C0.00526583 3.73246 0.00526583 3.76952 0.010495 3.80128C0.0209532 3.92305 0.0314115 4.04481 0.052328 4.16658C0.052328 4.18246 0.052328 4.19834 0.0575571 4.21423C0.0575571 4.22481 0.0627863 4.2354 0.0627863 4.24599C0.0784737 4.34128 0.104619 4.43128 0.125536 4.52128C0.130765 4.54246 0.135994 4.56364 0.141223 4.58481C0.172598 4.6907 0.209202 4.79128 0.245806 4.89187C0.245806 4.89717 0.245806 4.90246 0.251035 4.91305C0.549095 5.65423 1.08247 6.25246 1.74134 6.63893C1.79363 6.6707 1.84069 6.69717 1.89298 6.72364C1.94527 6.75011 1.99756 6.77658 2.04986 6.79775C2.1649 6.8507 2.27994 6.89834 2.40021 6.9407C2.94927 7.12599 3.55585 7.17893 4.16765 7.06246L4.17811 7.05717Z" fill="#AD737E"></path><path d="M54.8013 26.1954L50.7487 19.1913H48.3329L53.6248 28.8636V33.5648H55.9988V28.7789L61.207 19.1913H58.7755L54.8013 26.1954Z" fill="#161616"></path><path d="M78.6461 27.6089C78.6461 30.0495 77.2081 31.4895 74.8968 31.4895C72.5855 31.4895 71.0848 30.0336 71.0848 27.6089V19.1913H68.6951V27.6089C68.6951 31.3678 71.0482 33.6654 74.8811 33.6654C78.7141 33.6654 81.0463 31.3678 81.0463 27.6089V19.1913H78.6566V27.6089H78.6461Z" fill="#161616"></path><path d="M100.295 29.5201L92.6916 19.1913H90.3385V33.5648H92.7334V23.2572L100.295 33.5648H102.648V19.1913H100.295V29.5201Z" fill="#161616"></path><path d="M119.831 21.2878C121.311 21.2878 122.832 21.9019 123.925 22.9289L125.285 21.1448C123.883 19.9113 121.86 19.133 119.831 19.133C115.532 19.133 112.228 22.2725 112.228 26.3807C112.228 30.4889 115.491 33.6707 119.69 33.6707C121.635 33.6707 123.763 32.9136 125.206 31.8019V26.5025H121.054V28.6042H123.12V30.5048C122.105 31.1189 120.908 31.4895 119.857 31.4895C116.955 31.4895 114.664 29.2501 114.664 26.3754C114.664 23.5007 116.934 21.2825 119.836 21.2825L119.831 21.2878Z" fill="#161616"></path><path d="M138.886 19.1913L132.621 33.5648H135.116L136.475 30.3195H143.634L144.993 33.5648H147.55L141.343 19.1913H138.891H138.886ZM137.364 28.1648L140.041 21.7801L142.719 28.1648H137.364Z" fill="#161616"></path><path d="M157.355 22.8654C157.355 21.9019 158.27 21.3672 159.666 21.3672C160.738 21.3672 162.281 21.7589 163.824 22.7013L164.817 20.5678C163.499 19.6836 161.695 19.0907 159.849 19.0907C156.769 19.0907 154.678 20.6313 154.678 23.093C154.678 28.2072 162.344 26.4178 162.344 29.6207C162.344 30.7272 161.35 31.3678 159.687 31.3678C158.166 31.3678 156.341 30.6266 154.882 29.2713L153.846 31.3678C155.305 32.723 157.413 33.6442 159.645 33.6442C162.767 33.6442 165 32.0613 165 29.4989C165.021 24.3266 157.355 26.0101 157.355 22.8654Z" fill="#161616"></path></g><defs><clipPath id="clip0_254_2376"><rect width="165" height="45" fill="white"></rect></clipPath></defs></svg>