<svg width="143" height="30" viewBox="0 0 143 30" fill="none" xmlns="http://www.w3.org/2000/svg">
<path d="M60.5703 17.9672V18.1C60.5703 18.4782 60.4175 18.9833 59.6807 19.2027C58.7377 19.4754 57.6894 19.6082 56.5534 19.6082C52.9879 19.6082 51.1826 17.621 51.1826 13.6999V6.3238H49.2506C48.7531 6.3238 48.4735 6.03805 48.4735 5.54599V5.38C48.4735 5.10729 48.5268 4.92114 48.6334 4.79546C48.74 4.66978 48.926 4.58915 49.2174 4.53579L51.1956 4.31644V0.767695C51.1956 0.42859 51.3283 0.275637 51.4551 0.162997C51.5806 0.0562854 51.7737 0.00292969 52.0391 0.00292969H52.5235C52.8221 0.00292969 53.0211 0.0622138 53.1407 0.196196C53.2473 0.321878 53.2994 0.515144 53.2994 0.780737V4.3034H59.0292C59.394 4.3034 59.6404 4.37691 59.779 4.52986C59.9116 4.6757 59.9709 4.9081 59.9709 5.2472V5.38C59.9709 5.7191 59.9116 5.9515 59.779 6.09734C59.6392 6.25029 59.394 6.3238 59.0292 6.3238H53.2994V13.6999C53.2994 15.1026 53.5648 16.1128 54.0765 16.6902C54.5882 17.2617 55.4115 17.5546 56.5202 17.5546C57.629 17.5546 58.6714 17.4218 59.574 17.1621C59.6996 17.1159 59.8264 17.0957 59.933 17.0957C60.1723 17.0957 60.5703 17.2084 60.5703 17.966V17.9672Z" fill="#1D2946"/>
<path d="M70.6686 5.08051V5.2797C70.6686 5.652 70.5952 5.89151 70.4365 6.01719C70.3299 6.10375 70.1771 6.14999 69.9852 6.14999C69.8987 6.14999 69.8063 6.14288 69.6997 6.12391C69.3348 6.05751 68.9096 6.02431 68.4381 6.02431C67.2701 6.02431 66.4267 6.33022 65.9351 6.92187C65.4376 7.51945 65.1853 8.51068 65.1853 9.84576V18.3317C65.1853 18.6969 65.1119 18.9435 64.9662 19.0893C64.8205 19.2423 64.5741 19.3087 64.2092 19.3087H64.0434C63.6786 19.3087 63.4322 19.2423 63.2865 19.0893C63.1408 18.9435 63.0673 18.6969 63.0673 18.3317V9.77937C63.0673 5.94487 64.8726 4.00391 68.4381 4.00391C68.8634 4.00391 69.3147 4.03711 69.7861 4.1035C70.1451 4.15686 70.3701 4.24341 70.4898 4.38214C70.6153 4.51494 70.6686 4.74733 70.6686 5.07932V5.08051Z" fill="#1D2946"/>
<path d="M99.29 17.7995V18.0319C99.29 18.3438 99.2367 18.5572 99.1372 18.69C99.0306 18.8228 98.8115 18.9425 98.4407 19.0682C97.4587 19.4275 96.2765 19.6065 94.9415 19.6065C92.4385 19.6065 90.5598 19.0421 89.3516 17.9181C88.1362 16.7953 87.5262 15.0345 87.5262 12.675V10.9012C87.5262 6.32212 89.996 4.00293 94.8764 4.00293C96.0183 4.00293 97.1069 4.1962 98.1161 4.57443C98.4419 4.70011 98.6468 4.82698 98.7534 4.96689C98.8731 5.11273 98.9264 5.33208 98.9264 5.6451V5.84429C98.9264 6.54859 98.5615 6.6553 98.3483 6.6553C98.2358 6.6553 98.1161 6.62922 97.9835 6.57586C96.9351 6.21067 95.8986 6.02452 94.9095 6.02452C93.0107 6.02452 91.6425 6.42291 90.8465 7.20072C90.0493 7.97141 89.6453 9.23416 89.6453 10.9356V12.6762C89.6453 14.4642 90.0635 15.7459 90.8868 16.4704C91.7171 17.2079 93.1303 17.5873 95.0765 17.5873C96.2848 17.5873 97.3734 17.4083 98.3163 17.0692C98.4952 17.0099 98.6421 16.9826 98.7617 16.9826C98.8873 16.9826 98.9939 17.0158 99.0733 17.0751C99.2261 17.1948 99.2924 17.4272 99.2924 17.7995H99.29Z" fill="#1D2946"/>
<path d="M12.6026 5.72552C11.4536 4.58252 9.61517 4.00391 7.15839 4.00391C5.20031 4.00391 3.69237 4.44972 2.49715 5.17299C2.33842 5.26547 1.84682 5.31883 1.68098 4.80068C1.64782 4.7082 1.56134 4.53509 1.47487 4.46158C1.35523 4.35487 1.16925 4.30151 0.896804 4.30151H0.777164C0.285571 4.30151 9.15527e-05 4.58726 9.15527e-05 5.07932V24.9431C9.15527e-05 25.3082 0.0735343 25.5549 0.219235 25.7078C0.364936 25.8537 0.611325 25.9272 0.97617 25.9272H1.14201C1.50093 25.9272 1.75324 25.8537 1.89894 25.7078C2.04464 25.5549 2.11809 25.3094 2.11809 24.9431V17.5859C3.09417 19.0016 4.84613 19.6063 7.35029 19.6063C9.85446 19.6063 11.533 19.0218 12.6548 17.8657C13.7765 16.7097 14.3475 14.9418 14.3475 12.6096V10.9354C14.3475 8.62332 13.7564 6.87444 12.6015 5.72552H12.6026ZM12.1904 12.6428C12.1904 14.4166 11.8125 15.6935 11.0686 16.4512C10.3318 17.2017 9.00986 17.5871 7.15839 17.5871C5.30693 17.5871 3.98496 17.2017 3.24105 16.4512C2.49715 15.6935 2.11927 14.4178 2.11927 12.6428V10.9686C2.11927 9.19482 2.49715 7.91784 3.24105 7.16019C3.98496 6.40966 5.29982 6.02431 7.15839 6.02431C9.01697 6.02431 10.3318 6.40966 11.0686 7.16019C11.8125 7.91784 12.1904 9.20075 12.1904 10.9686V12.6428Z" fill="#1D2946"/>
<path d="M23.1725 4.00412C21.7321 4.00412 20.4172 4.1298 19.2622 4.37642C18.9377 4.44993 18.7185 4.55546 18.5918 4.69537C18.4591 4.84121 18.3928 5.0736 18.3928 5.41271V5.6451C18.3928 6.0174 18.4591 6.2498 18.6048 6.37667C18.6913 6.45018 18.8038 6.48931 18.9436 6.48931C19.0632 6.48931 19.1959 6.46915 19.3558 6.41579C20.4977 6.117 21.8185 5.96405 23.2732 5.96405C24.8131 5.96405 25.9621 6.2166 26.6859 6.7217C27.3966 7.21969 27.7484 8.01054 27.7484 9.14761V10.0843H23.7979C21.4407 10.0843 19.6816 10.4696 18.5728 11.2403C17.4439 12.0241 16.873 13.1279 16.873 14.8353C16.873 16.4502 17.4238 17.4675 18.5124 18.3307C19.588 19.1749 21.0557 19.6065 22.874 19.6065C25.0121 19.6065 26.353 19.022 27.335 18.4564C27.6406 18.2833 28.0517 18.4434 28.1654 18.7493C28.2246 18.9224 28.3052 19.0753 28.3846 19.1477C28.4971 19.2472 28.6629 19.3077 28.8892 19.3077H29.0882C29.5798 19.3148 29.8653 19.0291 29.8653 18.5299V9.14642C29.8653 5.73758 27.6146 4.00293 23.1725 4.00293V4.00412ZM27.7461 15.4139C27.7461 17.0158 24.9706 17.6537 22.8728 17.6537C20.2632 17.6537 18.9957 16.896 18.9957 14.8365C18.9957 13.7066 19.3475 13.0888 20.0784 12.624C20.8282 12.1521 22.1028 11.9067 23.8631 11.9067H27.7473V15.4151L27.7461 15.4139Z" fill="#1D2946"/>
<path d="M77.9528 4.00412C76.5182 4.00412 75.2046 4.1298 74.0484 4.37642C73.7239 4.44993 73.4976 4.55546 73.3709 4.69537C73.2382 4.84121 73.179 5.0736 73.179 5.41271V5.6451C73.179 6.0174 73.2453 6.2498 73.3851 6.37667C73.4716 6.45018 73.5841 6.48931 73.7298 6.48931C73.8423 6.48931 73.9821 6.46915 74.1349 6.41579C75.2839 6.117 76.5976 5.96405 78.0523 5.96405C79.5922 5.96405 80.7412 6.2166 81.465 6.7217C82.1816 7.21969 82.5275 8.01054 82.5275 9.14761V10.0843H78.5841C76.2209 10.0843 74.4607 10.4696 73.359 11.2403C72.2301 12.0241 71.6592 13.1279 71.6592 14.8353C71.6592 16.4502 72.21 17.4675 73.2986 18.3307C74.3742 19.1749 75.8419 19.6065 77.6542 19.6065C79.7983 19.6065 81.1404 19.022 82.1153 18.4564C82.4209 18.2833 82.832 18.4434 82.9457 18.7493C83.0049 18.9224 83.0855 19.0753 83.1719 19.1477C83.2785 19.2472 83.4444 19.3077 83.6694 19.3077H83.8685C84.366 19.3148 84.6455 19.0291 84.6455 18.5299V9.14642C84.6455 5.73758 82.3949 4.00293 77.9528 4.00293V4.00412ZM82.5263 15.4139C82.5263 17.0158 79.7509 17.6537 77.6531 17.6537C75.0435 17.6537 73.776 16.896 73.776 14.8365C73.776 13.7066 74.1349 13.0888 74.8646 12.624C75.6144 12.1521 76.8831 11.9067 78.6493 11.9067H82.5263V15.4151V15.4139Z" fill="#1D2946"/>
<path d="M46.5818 5.03426L42.5851 19.1688C42.007 21.4548 41.1577 23.1823 40.056 24.3455C38.9473 25.5086 37.5862 26.1062 35.9669 26.1264C35.6814 26.1264 35.4753 26.073 35.3427 25.9663C35.2029 25.8596 35.1034 25.6545 35.024 25.3154L34.9648 25.0557C34.8783 24.6964 34.8854 24.4842 34.9719 24.3585C35.0714 24.2257 35.2503 24.1652 35.5689 24.1652C36.9371 24.1451 37.8989 23.653 38.6298 22.8764C39.5123 21.9397 40.0039 21.1548 40.5488 19.3739L40.6744 18.9957C40.608 19.036 40.024 19.3739 38.9082 19.3739C37.9321 19.3739 37.0958 19.0953 36.5841 18.5368C36.0925 17.9985 35.6483 17.0678 35.2432 15.7054L31.738 5.03308C31.6314 4.66077 31.6314 4.40822 31.7511 4.24934C31.8636 4.08335 32.11 4.00391 32.508 4.00391H32.6407C33.0197 4.00391 33.278 4.06319 33.4509 4.19006C33.6108 4.30981 33.7494 4.55525 33.8762 4.92162L37.3813 15.6343C37.5874 16.3718 37.8326 16.8697 38.1051 17.1223C38.3645 17.3618 38.7826 17.4875 39.3536 17.4875C40.2692 17.4875 41.0736 16.8757 41.3188 15.9923L44.446 4.93467C44.5455 4.58252 44.6711 4.35013 44.8381 4.21021C45.0051 4.0703 45.2693 4.00391 45.6483 4.00391H45.781C46.179 4.00391 46.4254 4.07742 46.551 4.2363C46.6836 4.4023 46.6967 4.65485 46.5841 5.03426H46.5818Z" fill="#1D2946"/>
<path d="M115.437 18.4187C115.437 18.625 114.455 19.6079 114.249 19.6079C114.043 19.6079 113.81 19.4822 113.558 19.2297L108.453 14.1194C107.005 12.6705 105.976 13.6546 105.758 13.874L104.463 15.1699V18.44C104.463 18.8052 104.39 19.0518 104.244 19.2048C104.098 19.3506 102.71 19.3506 102.564 19.2048C102.411 19.059 102.345 18.8064 102.345 18.44V0.874144C102.345 0.508954 102.411 0.262332 102.564 0.109379C102.71 -0.0364597 104.098 -0.0364597 104.244 0.109379C104.39 0.262332 104.463 0.507768 104.463 0.874144V12.1713L112.105 4.52249C112.364 4.26282 112.589 4.13714 112.795 4.13714C113.001 4.13714 113.983 5.12007 113.983 5.32638C113.983 5.53269 113.858 5.76508 113.604 6.01763L107.709 11.9188C108.525 11.8121 109.348 12.0113 109.853 12.5235L115.058 17.7274C115.31 17.9871 115.437 18.2124 115.437 18.4187Z" fill="#1D2946"/>
<path d="M141.709 6.73533H141.696C141.656 6.72229 141.61 6.71518 141.556 6.71518H141.158L125.914 5.13348C125.715 5.11332 125.549 5.00068 125.456 4.82757L123.099 0.22238C123.039 0.102627 123.152 -0.0230558 123.271 0.0160717L141.709 6.73415V6.73533Z" fill="#1D2946"/>
<path d="M142.054 7.58611L129.06 29.3232C128.987 29.456 128.788 29.3967 128.795 29.2438L129.525 15.5409C129.538 15.2883 129.438 15.0358 129.252 14.8626L120.727 6.96126C120.635 6.8747 120.694 6.71582 120.827 6.71582H141.156L141.349 6.73598H141.708C142.067 6.83557 142.252 7.24819 142.053 7.58611H142.054Z" fill="#FCE300"/>
</svg>
