<svg width="143" height="30" viewBox="0 0 143 30" fill="none" xmlns="http://www.w3.org/2000/svg">
<path d="M60.5703 17.9672V18.1C60.5703 18.4782 60.4175 18.9833 59.6807 19.2027C58.7377 19.4754 57.6894 19.6082 56.5534 19.6082C52.9879 19.6082 51.1826 17.621 51.1826 13.6999V6.3238H49.2506C48.7531 6.3238 48.4735 6.03805 48.4735 5.54599V5.38C48.4735 5.10729 48.5268 4.92114 48.6334 4.79546C48.74 4.66978 48.926 4.58915 49.2174 4.53579L51.1956 4.31644V0.767695C51.1956 0.42859 51.3283 0.275637 51.4551 0.162997C51.5806 0.0562854 51.7737 0.00292969 52.0391 0.00292969H52.5235C52.8221 0.00292969 53.0211 0.0622138 53.1407 0.196196C53.2473 0.321878 53.2994 0.515144 53.2994 0.780737V4.3034H59.0292C59.394 4.3034 59.6404 4.37691 59.779 4.52986C59.9116 4.6757 59.9709 4.9081 59.9709 5.2472V5.38C59.9709 5.7191 59.9116 5.9515 59.779 6.09734C59.6392 6.25029 59.394 6.3238 59.0292 6.3238H53.2994V13.6999C53.2994 15.1026 53.5648 16.1128 54.0765 16.6902C54.5882 17.2617 55.4115 17.5546 56.5202 17.5546C57.629 17.5546 58.5111 17.3691 59.1558 16.998C59.4611 16.8252 59.6936 16.7351 59.8601 16.7351C60.0469 16.7351 60.2003 16.8252 60.3139 17.0114C60.481 17.2964 60.5703 17.6009 60.5703 17.9672Z" fill="#182230"/>
<path d="M74.4746 5.28V19.2893C74.4746 19.8002 74.2684 20.0202 73.6178 20.0202H73.3584C73.0598 20.0202 72.8608 19.961 72.7413 19.827C72.6347 19.7013 72.5826 19.5092 72.5826 19.2424V17.7137C71.3793 19.2424 69.5206 20.1495 67.2495 20.1495C63.0968 20.1495 60.082 17.0649 60.082 12.5448C60.082 8.02461 63.0968 4.94 67.2495 4.94C69.4813 4.94 71.3058 5.81399 72.5091 7.2894V5.34695C72.5091 4.83601 72.7153 4.61605 73.3659 4.61605H73.5452C73.8504 4.61605 74.0554 4.6753 74.169 4.80929C74.2756 4.93497 74.3277 5.12709 74.3277 5.39383L74.4746 5.28ZM72.5826 12.5448C72.5826 9.04632 70.2383 6.8996 67.4428 6.8996C64.6473 6.8996 62.1966 9.03957 62.1966 12.5448C62.1966 16.05 64.541 18.1901 67.4428 18.1901C70.3447 18.1901 72.5826 16.0434 72.5826 12.5448Z" fill="#182230"/>
<path d="M90.8633 14.3032C90.8633 17.7944 87.9149 20.1489 83.7953 20.1489C80.7539 20.1489 78.3963 19.0448 76.7905 16.8918C76.6044 16.6317 76.5117 16.4187 76.5117 16.2465C76.5117 16.0282 76.6444 15.7893 76.9298 15.5162L77.0825 15.3706C77.3278 15.1376 77.5268 15.0174 77.6795 15.0174C77.8856 15.0174 78.132 15.1842 78.4108 15.531C79.7478 17.2788 81.5198 18.1575 83.6687 18.1575C86.225 18.1575 88.1438 16.9117 88.1438 14.8725C88.1438 10.7736 76.8565 12.8338 76.8565 6.45038C76.8565 3.00574 79.6587 0.544922 83.7224 0.544922C86.3187 0.544922 88.3743 1.43197 89.8314 3.21242C90.0108 3.4454 90.1036 3.65865 90.1036 3.8442C90.1036 4.04953 89.971 4.2822 89.7182 4.54894L89.5655 4.70189C89.3261 4.94806 89.1337 5.07373 88.9876 5.07373C88.828 5.07373 88.5896 4.88102 88.3103 4.54894C87.1333 3.09655 85.6161 2.35693 83.7224 2.35693C81.2456 2.35693 79.3003 3.7655 79.3003 5.85768C79.3003 9.92343 90.8633 7.81697 90.8633 14.3032Z" fill="#182230"/>
<path d="M104.872 14.3032C104.872 17.7944 101.924 20.1489 97.8044 20.1489C94.7631 20.1489 92.4054 19.0448 90.7997 16.8918C90.6135 16.6317 90.5208 16.4187 90.5208 16.2465C90.5208 16.0282 90.6535 15.7893 90.939 15.5162L91.0917 15.3706C91.3369 15.1376 91.536 15.0174 91.6887 15.0174C91.8947 15.0174 92.1411 15.1842 92.4199 15.531C93.757 17.2788 95.529 18.1575 97.6779 18.1575C100.234 18.1575 102.153 16.9117 102.153 14.8725C102.153 10.7736 90.8657 12.8338 90.8657 6.45038C90.8657 3.00574 93.6678 0.544922 97.7316 0.544922C100.328 0.544922 102.383 1.43197 103.84 3.21242C104.02 3.4454 104.113 3.65865 104.113 3.8442C104.113 4.04953 103.98 4.2822 103.727 4.54894L103.575 4.70189C103.335 4.94806 103.143 5.07373 102.997 5.07373C102.837 5.07373 102.599 4.88102 102.319 4.54894C101.142 3.09655 99.6253 2.35693 97.7316 2.35693C95.2547 2.35693 93.3095 3.7655 93.3095 5.85768C93.3095 9.92343 104.872 7.81697 104.872 14.3032Z" fill="#182230"/>
<path d="M31.4414 5.28V19.2893C31.4414 19.8002 31.2352 20.0202 30.5847 20.0202H30.3253C30.0267 20.0202 29.8276 19.961 29.7081 19.827C29.6015 19.7013 29.5494 19.5092 29.5494 19.2424V17.7137C28.3462 19.2424 26.4875 20.1495 24.2163 20.1495C20.0636 20.1495 17.0488 17.0649 17.0488 12.5448C17.0488 8.02461 20.0636 4.94 24.2163 4.94C26.4482 4.94 28.2726 5.81399 29.4759 7.2894V5.34695C29.4759 4.83601 29.6821 4.61605 30.3327 4.61605H30.5121C30.8173 4.61605 31.0222 4.6753 31.1358 4.80929C31.2424 4.93497 31.2945 5.12709 31.2945 5.39383L31.4414 5.28ZM29.5494 12.5448C29.5494 9.04632 27.2051 6.8996 24.4097 6.8996C21.6142 6.8996 19.1635 9.03957 19.1635 12.5448C19.1635 16.05 21.5079 18.1901 24.4097 18.1901C27.3115 18.1901 29.5494 16.0434 29.5494 12.5448Z" fill="#182230"/>
<path d="M46.4428 5.28009V19.4356C46.4428 19.7881 46.3567 20.0262 46.1638 20.1586C46.0372 20.2451 45.851 20.2916 45.5854 20.2916H44.7959C44.361 20.2916 44.1016 20.1788 43.8956 19.9854C43.7296 19.8259 43.5772 19.5659 43.4372 19.1745L41.1062 13.0672L38.6154 6.54649C38.4692 6.19334 38.3832 5.94783 38.3565 5.80844C38.3365 5.7093 38.3366 5.60295 38.3566 5.49622C38.3966 5.28295 38.5226 5.17622 38.7954 5.17622H39.4126C39.6853 5.17622 39.8447 5.23557 39.9313 5.34899C40.018 5.4624 40.1312 5.68912 40.2911 6.06239L43.0465 13.0672L45.4509 19.295L47.9017 13.0672L50.6438 6.05572C50.8032 5.6758 50.9231 5.44241 50.9965 5.33567C51.0831 5.21557 51.2359 5.14954 51.4953 5.14954H52.1191C52.3919 5.14954 52.5179 5.25628 52.5579 5.46955C52.5779 5.56959 52.5779 5.68301 52.5513 5.80844C52.5246 5.94783 52.4386 6.19334 52.2924 6.54649L46.4428 19.9921V5.28009Z" fill="#182230"/>
<path d="M120.553 5.22339V19.1394C120.553 19.6503 120.346 19.8703 119.696 19.8703H119.437C119.138 19.8703 118.939 19.811 118.82 19.677C118.713 19.5514 118.661 19.3593 118.661 19.0925V8.24537L112.272 19.4999C112.032 19.9177 111.693 20.1437 111.307 20.1437C110.914 20.1437 110.575 19.9177 110.342 19.4999L103.953 8.24537V19.1394C103.953 19.6503 103.747 19.8703 103.096 19.8703H102.837C102.538 19.8703 102.339 19.811 102.22 19.677C102.113 19.5514 102.061 19.3593 102.061 19.0925V5.20351C102.061 4.75221 102.28 4.56012 102.71 4.56012H103.366C103.665 4.56012 103.864 4.61947 103.983 4.75349C104.09 4.87917 104.236 5.10538 104.422 5.43746L111.307 17.5893L118.192 5.43746C118.378 5.10538 118.524 4.87917 118.627 4.75349C118.747 4.61947 118.946 4.56012 119.244 4.56012H119.847C120.277 4.56012 120.496 4.75221 120.496 5.20351L120.553 5.22339Z" fill="#182230"/>
<path d="M136.094 5.28V19.2893C136.094 19.8002 135.888 20.0202 135.237 20.0202H134.978C134.679 20.0202 134.48 19.961 134.361 19.827C134.254 19.7013 134.202 19.5092 134.202 19.2424V17.7137C132.999 19.2424 131.14 20.1495 128.869 20.1495C124.716 20.1495 121.701 17.0649 121.701 12.5448C121.701 8.02461 124.716 4.94 128.869 4.94C131.101 4.94 132.925 5.81399 134.128 7.2894V5.34695C134.128 4.83601 134.334 4.61605 134.985 4.61605H135.165C135.47 4.61605 135.675 4.6753 135.788 4.80929C135.895 4.93497 135.947 5.12709 135.947 5.39383L136.094 5.28ZM134.202 12.5448C134.202 9.04632 131.858 6.8996 129.062 6.8996C126.267 6.8996 123.816 9.03957 123.816 12.5448C123.816 16.05 126.16 18.1901 129.062 18.1901C131.964 18.1901 134.202 16.0434 134.202 12.5448Z" fill="#182230"/>
<path d="M142.995 12.5448C142.995 17.0649 139.847 20.1495 135.694 20.1495C133.423 20.1495 131.565 19.2424 130.361 17.7137V26.5783C130.361 27.0892 130.155 27.3092 129.504 27.3092H129.245C128.946 27.3092 128.747 27.2499 128.628 27.1159C128.521 26.9903 128.469 26.7981 128.469 26.5314V5.28005C128.469 4.83601 128.688 4.6161 129.118 4.6161H129.377C129.676 4.6161 129.875 4.67545 129.994 4.80944C130.101 4.93512 130.153 5.12724 130.153 5.39398L130.288 5.28005V7.28948C131.492 5.81399 133.316 4.94 135.548 4.94C139.834 4.94 142.995 8.02461 142.995 12.5448ZM140.88 12.5448C140.88 9.03967 138.536 6.89965 135.741 6.89965C132.945 6.89965 130.494 9.03967 130.494 12.5448C130.494 16.05 132.839 18.1901 135.741 18.1901C138.642 18.1901 140.88 16.0434 140.88 12.5448Z" fill="#182230"/>
<path d="M0 14.6431V0.76709C0 0.42799 0.132645 0.275037 0.259367 0.162397C0.384762 0.0556854 0.577827 0.00292969 0.84325 0.00292969H1.32766C1.62625 0.00292969 1.82529 0.0622138 1.94488 0.196196C2.05149 0.321878 2.10358 0.515144 2.10358 0.780737V14.6431C2.10358 17.4094 3.56738 18.3234 5.53218 18.3234C6.35555 18.3234 7.00622 18.2234 7.50396 18.0166C8.04825 17.7969 8.33356 17.6645 8.51931 17.6645C8.71169 17.6645 8.86451 17.7546 8.9845 17.9408C9.15796 18.2258 9.24736 18.5303 9.24736 18.8966V18.9028C9.24736 19.3074 9.08095 19.8121 8.34418 20.0312C7.58081 20.2504 6.56577 20.3164 5.42976 20.3164C1.96538 20.3164 0 18.4298 0 14.6431Z" fill="#182230"/>
<path d="M16.0497 12.5448C16.0497 17.0649 12.9016 20.1495 8.74872 20.1495C6.47763 20.1495 4.61891 19.2424 3.41565 17.7137V26.5783C3.41565 27.0892 3.20938 27.3092 2.55884 27.3092H2.29956C2.00096 27.3092 1.80192 27.2499 1.68233 27.1159C1.57572 26.9903 1.52363 26.7981 1.52363 26.5314V5.28005C1.52363 4.83601 1.74283 4.6161 2.17294 4.6161H2.43223C2.73082 4.6161 2.92986 4.67545 3.04945 4.80944C3.15606 4.93512 3.20815 5.12724 3.20815 5.39398L3.34269 5.28005V7.28948C4.54595 5.81399 6.37046 4.94 8.60234 4.94C12.8883 4.94 16.0497 8.02461 16.0497 12.5448ZM13.9348 12.5448C13.9348 9.03967 11.5905 6.89965 8.79497 6.89965C5.99948 6.89965 3.54872 9.03967 3.54872 12.5448C3.54872 16.05 5.89307 18.1901 8.79497 18.1901C11.6969 18.1901 13.9348 16.0434 13.9348 12.5448Z" fill="#182230"/>
</svg>
